<svg width="62" height="57" viewBox="0 0 62 57" fill="none" xmlns="http://www.w3.org/2000/svg">
<mask id="mask0_123_3156" style="mask-type:luminance" maskUnits="userSpaceOnUse" x="36" y="31" width="26" height="27">
<path d="M36.7552 31.8074H62V57.0001H36.7552V31.8074Z" fill="white"/>
</mask>
<g mask="url(#mask0_123_3156)">
<path d="M49.6771 32.4375C53.0781 32.4375 56.1615 33.8125 58.3906 36.0312C60.6198 38.25 62 41.3177 62 44.7031C62 48.0885 60.6198 51.1563 58.3906 53.375C56.1615 55.5938 53.0781 56.9635 49.6771 56.9635C46.2761 56.9635 43.1927 55.5938 40.9636 53.375C38.7344 51.1563 37.3542 48.0885 37.3542 44.7031C37.3542 41.3177 38.7344 38.25 40.9636 36.0312C43.1927 33.8125 46.2761 32.4375 49.6771 32.4375ZM57.0209 37.3958C55.1406 35.5208 52.5469 34.3646 49.6771 34.3646C46.8125 34.3646 44.2136 35.5208 42.3334 37.3958C40.4584 39.2656 39.2917 41.849 39.2917 44.7031C39.2917 47.5573 40.4584 50.1406 42.3334 52.0104C44.2136 53.8802 46.8125 55.0365 49.6771 55.0365C52.5469 55.0365 55.1406 53.8802 57.0209 52.0104C58.9011 50.1406 60.0625 47.5573 60.0625 44.7031C60.0625 41.849 58.9011 39.2656 57.0209 37.3958Z" fill="black"/>
</g>
<path d="M50.6459 33.401C50.6459 32.8698 50.2136 32.4375 49.6771 32.4375C49.1407 32.4375 48.7084 32.8698 48.7084 33.401V35.3438C48.7084 35.875 49.1407 36.3073 49.6771 36.3073C50.2136 36.3073 50.6459 35.875 50.6459 35.3438V33.401Z" fill="black"/>
<mask id="mask1_123_3156" style="mask-type:luminance" maskUnits="userSpaceOnUse" x="58" y="42" width="4" height="5">
<path d="M58.0885 42.474H62V46.474H58.0885V42.474Z" fill="white"/>
</mask>
<g mask="url(#mask1_123_3156)">
<path d="M61.0312 45.6667C61.5677 45.6667 62 45.2344 62 44.7032C62 44.1667 61.5677 43.7396 61.0312 43.7396H59.0833C58.5469 43.7396 58.1146 44.1667 58.1146 44.7032C58.1146 45.2344 58.5469 45.6667 59.0833 45.6667H61.0312Z" fill="black"/>
</g>
<mask id="mask2_123_3156" style="mask-type:luminance" maskUnits="userSpaceOnUse" x="47" y="51" width="5" height="7">
<path d="M47.4218 51.8074H51.4218V57.0001H47.4218V51.8074Z" fill="white"/>
</mask>
<g mask="url(#mask2_123_3156)">
<path d="M48.7083 56C48.7083 56.5313 49.1405 56.9636 49.677 56.9636C50.2135 56.9636 50.6458 56.5313 50.6458 56V54.0625C50.6458 53.5313 50.2135 53.099 49.677 53.099C49.1405 53.099 48.7083 53.5313 48.7083 54.0625V56Z" fill="black"/>
</g>
<path d="M38.3229 43.7396C37.7916 43.7396 37.3541 44.1667 37.3541 44.7032C37.3541 45.2344 37.7916 45.6667 38.3229 45.6667H40.276C40.8073 45.6667 41.2448 45.2344 41.2448 44.7032C41.2448 44.1667 40.8073 43.7396 40.276 43.7396H38.3229Z" fill="black"/>
<path d="M50.6458 39.0782C50.6458 38.5469 50.2135 38.1146 49.677 38.1146C49.1406 38.1146 48.7083 38.5469 48.7083 39.0782V43.7396H45.3698C44.8333 43.7396 44.401 44.1667 44.401 44.7032C44.401 45.2344 44.8333 45.6667 45.3698 45.6667H49.677C50.2135 45.6667 50.6458 45.2344 50.6458 44.7032V39.0782Z" fill="black"/>
<mask id="mask3_123_3156" style="mask-type:luminance" maskUnits="userSpaceOnUse" x="0" y="3" width="56" height="53">
<path d="M0 3.80737H55.4219V55.8074H0V3.80737Z" fill="white"/>
</mask>
<g mask="url(#mask3_123_3156)">
<path d="M2.28125 4.51562H52.4271C53.6823 4.51562 54.7135 5.54167 54.7135 6.79167V34.151C54.7135 34.6823 54.276 35.1146 53.7448 35.1146C53.6042 35.1146 53.474 35.0833 53.3542 35.0312C52.776 34.8125 52.1771 34.6458 51.5729 34.5365C50.9688 34.4271 50.3385 34.3646 49.6771 34.3646C46.8125 34.3646 44.2135 35.5208 42.3333 37.3958C40.4583 39.2656 39.2917 41.849 39.2917 44.7031C39.2917 46.474 39.7396 48.1354 40.5208 49.5833C41.3385 51.0938 42.5156 52.3802 43.9479 53.3229C44.3958 53.6146 44.5156 54.2135 44.2188 54.6562C44.0365 54.9375 43.724 55.0885 43.4115 55.0885H2.28125C1.65625 55.0885 1.08333 54.8333 0.671875 54.4219C0.645834 54.401 0.625 54.375 0.604167 54.349C0.229167 53.9427 0 53.4063 0 52.8177V6.79167C0 5.54167 1.03125 4.51562 2.28125 4.51562ZM52.4271 6.44792H2.28125C2.09375 6.44792 1.9375 6.59896 1.9375 6.79167V52.8177C1.9375 52.901 1.96354 52.974 2.01042 53.0312L2.04167 53.0573C2.10417 53.1198 2.1875 53.1615 2.28125 53.1615H40.7604C40 52.3698 39.3438 51.474 38.8177 50.4948C37.8854 48.7708 37.3542 46.7969 37.3542 44.7031C37.3542 41.3177 38.7344 38.25 40.9635 36.0312C43.1927 33.8125 46.276 32.4375 49.6771 32.4375C50.4323 32.4375 51.1823 32.5104 51.9219 32.6458C52.2135 32.6979 52.4948 32.7604 52.776 32.8333V6.79167C52.776 6.59896 52.6198 6.44792 52.4271 6.44792Z" fill="black"/>
</g>
<mask id="mask4_123_3156" style="mask-type:luminance" maskUnits="userSpaceOnUse" x="6" y="0" width="3" height="12">
<path d="M6.0885 0H8.75517V11.8073H6.0885V0Z" fill="white"/>
</mask>
<g mask="url(#mask4_123_3156)">
<path d="M8.56246 0.984416C8.56246 0.453166 8.12496 0.020874 7.5885 0.020874C7.05725 0.020874 6.61975 0.453166 6.61975 0.984416V9.97921C6.61975 10.5105 7.05725 10.9427 7.5885 10.9427C8.12496 10.9427 8.56246 10.5105 8.56246 9.97921V0.984416Z" fill="black"/>
</g>
<mask id="mask5_123_3156" style="mask-type:luminance" maskUnits="userSpaceOnUse" x="14" y="0" width="3" height="12">
<path d="M14.0885 0H16.7552V11.8073H14.0885V0Z" fill="white"/>
</mask>
<g mask="url(#mask5_123_3156)">
<path d="M16.4635 0.984416C16.4635 0.453166 16.0312 0.020874 15.4948 0.020874C14.9635 0.020874 14.526 0.453166 14.526 0.984416V9.97921C14.526 10.5105 14.9635 10.9427 15.4948 10.9427C16.0312 10.9427 16.4635 10.5105 16.4635 9.97921V0.984416Z" fill="black"/>
</g>
<mask id="mask6_123_3156" style="mask-type:luminance" maskUnits="userSpaceOnUse" x="22" y="0" width="3" height="12">
<path d="M22.0885 0H24.7552V11.8073H22.0885V0Z" fill="white"/>
</mask>
<g mask="url(#mask6_123_3156)">
<path d="M24.3698 0.984416C24.3698 0.453166 23.9375 0.020874 23.401 0.020874C22.8698 0.020874 22.4323 0.453166 22.4323 0.984416V9.97921C22.4323 10.5105 22.8698 10.9427 23.401 10.9427C23.9375 10.9427 24.3698 10.5105 24.3698 9.97921V0.984416Z" fill="black"/>
</g>
<mask id="mask7_123_3156" style="mask-type:luminance" maskUnits="userSpaceOnUse" x="30" y="0" width="3" height="12">
<path d="M30.0885 0H32.7552V11.8073H30.0885V0Z" fill="white"/>
</mask>
<g mask="url(#mask7_123_3156)">
<path d="M32.276 0.984416C32.276 0.453166 31.8437 0.020874 31.3073 0.020874C30.776 0.020874 30.3385 0.453166 30.3385 0.984416V9.97921C30.3385 10.5105 30.776 10.9427 31.3073 10.9427C31.8437 10.9427 32.276 10.5105 32.276 9.97921V0.984416Z" fill="black"/>
</g>
<mask id="mask8_123_3156" style="mask-type:luminance" maskUnits="userSpaceOnUse" x="38" y="0" width="3" height="12">
<path d="M38.0885 0H40.7552V11.8073H38.0885V0Z" fill="white"/>
</mask>
<g mask="url(#mask8_123_3156)">
<path d="M40.1823 0.984416C40.1823 0.453166 39.75 0.020874 39.2135 0.020874C38.6823 0.020874 38.2448 0.453166 38.2448 0.984416V9.97921C38.2448 10.5105 38.6823 10.9427 39.2135 10.9427C39.75 10.9427 40.1823 10.5105 40.1823 9.97921V0.984416Z" fill="black"/>
</g>
<mask id="mask9_123_3156" style="mask-type:luminance" maskUnits="userSpaceOnUse" x="46" y="0" width="3" height="12">
<path d="M46.0885 0H48.7552V11.8073H46.0885V0Z" fill="white"/>
</mask>
<g mask="url(#mask9_123_3156)">
<path d="M48.0885 0.984416C48.0885 0.453166 47.6562 0.020874 47.1198 0.020874C46.5833 0.020874 46.151 0.453166 46.151 0.984416V9.97921C46.151 10.5105 46.5833 10.9427 47.1198 10.9427C47.6562 10.9427 48.0885 10.5105 48.0885 9.97921V0.984416Z" fill="black"/>
</g>
<mask id="mask10_123_3156" style="mask-type:luminance" maskUnits="userSpaceOnUse" x="0" y="14" width="56" height="4">
<path d="M0 14.474H55.4219V17.1407H0V14.474Z" fill="white"/>
</mask>
<g mask="url(#mask10_123_3156)">
<path d="M53.7448 17.0208C54.276 17.0208 54.7135 16.5938 54.7135 16.0573C54.7135 15.526 54.276 15.0938 53.7448 15.0938H0.96875C0.432291 15.0938 0 15.526 0 16.0573C0 16.5938 0.432291 17.0208 0.96875 17.0208H53.7448Z" fill="black"/>
</g>
<path d="M9.48438 22.8594H14.1146C14.7865 22.8594 15.3385 23.4115 15.3385 24.0781V27.5104C15.3385 28.1771 14.7865 28.724 14.1146 28.724H9.48438C9.15104 28.724 8.84375 28.5885 8.625 28.3698C8.58333 28.3281 8.55208 28.2917 8.52083 28.25C8.35937 28.0469 8.26562 27.7865 8.26562 27.5104V24.0781C8.26562 23.7396 8.40104 23.4375 8.625 23.2188C8.84375 23 9.15104 22.8594 9.48438 22.8594ZM13.401 24.7917H10.2031V26.7969H13.401V24.7917Z" fill="black"/>
<path d="M19.8593 22.8594H24.4843C25.1562 22.8594 25.7083 23.4115 25.7083 24.0781V27.5104C25.7083 28.1771 25.1562 28.724 24.4843 28.724H19.8593C19.5208 28.724 19.2135 28.5885 18.9948 28.3698C18.9583 28.3281 18.9218 28.2917 18.8906 28.25C18.7291 28.0469 18.6354 27.7865 18.6354 27.5104V24.0781C18.6354 23.7396 18.7708 23.4375 18.9948 23.2188C19.2135 23 19.5208 22.8594 19.8593 22.8594ZM23.7708 24.7917H20.5729V26.7969H23.7708V24.7917Z" fill="black"/>
<path d="M30.2292 22.8594H34.8542C35.1927 22.8594 35.5 23 35.7188 23.2188C35.9375 23.4375 36.0782 23.7396 36.0782 24.0781V27.5104C36.0782 28.1771 35.5261 28.724 34.8542 28.724H30.2292C29.8907 28.724 29.5834 28.5885 29.3646 28.3698C29.3282 28.3281 29.2917 28.2917 29.2605 28.25C29.1042 28.0469 29.0052 27.7865 29.0052 27.5104V24.0781C29.0052 23.7396 29.1407 23.4375 29.3646 23.2188C29.5834 23 29.8907 22.8594 30.2292 22.8594ZM34.1407 24.7917H30.9427V26.7969H34.1407V24.7917Z" fill="black"/>
<path d="M40.5988 22.8594H45.2238C45.5624 22.8594 45.8697 23 46.0884 23.2188C46.3072 23.4375 46.4478 23.7396 46.4478 24.0781V27.5104C46.4478 28.1771 45.8957 28.724 45.2238 28.724H40.5988C39.927 28.724 39.3749 28.1771 39.3749 27.5104V24.0781C39.3749 23.7396 39.5103 23.4375 39.7343 23.2188C39.7707 23.1823 39.8072 23.1458 39.8488 23.1198C40.0572 22.9583 40.3176 22.8594 40.5988 22.8594ZM44.5103 24.7917H41.3124V26.7969H44.5103V24.7917Z" fill="black"/>
<path d="M9.48438 32.1615H14.1146C14.7865 32.1615 15.3385 32.7136 15.3385 33.375V36.8073C15.3385 37.4792 14.7865 38.0209 14.1146 38.0209H9.48438C9.15104 38.0209 8.84375 37.8855 8.625 37.6667C8.40104 37.448 8.26562 37.1407 8.26562 36.8073V33.375C8.26562 32.7084 8.81771 32.1615 9.48438 32.1615ZM13.401 34.0886H10.2031V36.0938H13.401V34.0886Z" fill="black"/>
<path d="M19.8593 32.1615H24.4843C25.1562 32.1615 25.7083 32.7084 25.7083 33.375V36.8073C25.7083 37.1407 25.5677 37.448 25.3489 37.6667C25.3125 37.7032 25.2708 37.7396 25.2291 37.7657C25.026 37.9271 24.7656 38.0209 24.4843 38.0209H19.8593C19.5208 38.0209 19.2135 37.8855 18.9948 37.6667C18.7708 37.448 18.6354 37.1407 18.6354 36.8073V33.375C18.6354 32.7084 19.1875 32.1615 19.8593 32.1615ZM23.7708 34.0886H20.5729V36.0938H23.7708V34.0886Z" fill="black"/>
<path d="M30.2292 32.1615H34.8542C35.1927 32.1615 35.5 32.2969 35.7188 32.5157C35.7552 32.5521 35.7917 32.5938 35.8177 32.6355C35.9792 32.8386 36.0782 33.099 36.0782 33.375V36.8073C36.0782 37.1407 35.9375 37.448 35.7188 37.6667C35.5 37.8855 35.1927 38.0209 34.8542 38.0209H30.2292C29.8907 38.0209 29.5834 37.8855 29.3646 37.6667C29.1407 37.448 29.0052 37.1407 29.0052 36.8073V33.375C29.0052 32.7084 29.5573 32.1615 30.2292 32.1615ZM34.1407 34.0886H30.9427V36.0938H34.1407V34.0886Z" fill="black"/>
<path d="M9.48438 41.4584H14.1146C14.7865 41.4584 15.3385 42.0105 15.3385 42.6771V46.1094C15.3385 46.7761 14.7865 47.323 14.1146 47.323H9.48438C8.8125 47.323 8.26562 46.7761 8.26562 46.1094V42.6771C8.26562 42.0052 8.81771 41.4584 9.48438 41.4584ZM13.401 43.3907H10.2031V45.3959H13.401V43.3907Z" fill="black"/>
<path d="M19.8593 41.4584H24.4843C25.1562 41.4584 25.7083 42.0105 25.7083 42.6771V46.1094C25.7083 46.4427 25.5677 46.7448 25.3489 46.9688C25.3125 47.0052 25.2708 47.0365 25.2291 47.0677C25.026 47.2292 24.7656 47.323 24.4843 47.323H19.8593C19.5208 47.323 19.2135 47.1875 18.9948 46.9688C18.7708 46.7448 18.6354 46.4427 18.6354 46.1094V42.6771C18.6354 42.0052 19.1875 41.4584 19.8593 41.4584ZM23.7708 43.3907H20.5729V45.3959H23.7708V43.3907Z" fill="black"/>
<path d="M30.2292 41.4584H34.8542C35.5261 41.4584 36.0782 42.0105 36.0782 42.6771V46.1094C36.0782 46.4427 35.9375 46.7448 35.7188 46.9688C35.5 47.1875 35.1927 47.323 34.8542 47.323H30.2292C29.8907 47.323 29.5834 47.1875 29.3646 46.9688C29.1407 46.7448 29.0052 46.4427 29.0052 46.1094V42.6771C29.0052 42.0052 29.5573 41.4584 30.2292 41.4584ZM34.1407 43.3907H30.9427V45.3959H34.1407V43.3907Z" fill="black"/>
</svg>
