<svg width="122" height="156" viewBox="0 0 122 156" fill="none" xmlns="http://www.w3.org/2000/svg">
<mask id="mask0_123_6390" style="mask-type:luminance" maskUnits="userSpaceOnUse" x="0" y="0" width="85" height="135">
<path d="M0 0H84.4427V134.609H0V0Z" fill="white"/>
</mask>
<g mask="url(#mask0_123_6390)">
<path d="M80.3959 133.714H2.81252C2.44273 133.714 2.09377 133.646 1.75002 133.505C1.41148 133.359 1.1146 133.161 0.854187 132.901C0.59377 132.635 0.395854 132.339 0.255229 131.995C0.114603 131.656 0.041687 131.297 0.041687 130.927V2.78646C0.041687 2.41667 0.114603 2.0625 0.255229 1.71875C0.395854 1.38021 0.59377 1.07812 0.854187 0.817708C1.1146 0.557292 1.41148 0.354167 1.75002 0.213542C2.09377 0.0729163 2.44273 0 2.81252 0H80.3959C80.7656 0 81.1146 0.0729163 81.4584 0.213542C81.7969 0.354167 82.0938 0.557292 82.3542 0.817708C82.6146 1.07812 82.8177 1.38021 82.9584 1.71875C83.099 2.0625 83.1667 2.41667 83.1667 2.78646V130.927C83.1667 131.297 83.099 131.656 82.9584 131.995C82.8177 132.339 82.6146 132.635 82.3542 132.901C82.0938 133.161 81.7969 133.359 81.4584 133.505C81.1146 133.646 80.7656 133.714 80.3959 133.714ZM5.58335 128.146H77.625V5.57292H5.58335V128.146Z" fill="#145A96"/>
</g>
<mask id="mask1_123_6390" style="mask-type:luminance" maskUnits="userSpaceOnUse" x="37" y="21" width="85" height="136">
<path d="M37.776 21.2761H122V156H37.776V21.2761Z" fill="white"/>
</mask>
<g mask="url(#mask1_123_6390)">
<path d="M119.187 156H41.6041C41.2344 156 40.8854 155.932 40.5416 155.786C40.2031 155.646 39.9062 155.448 39.6458 155.182C39.3854 154.922 39.1875 154.62 39.0469 154.281C38.9062 153.938 38.8333 153.583 38.8333 153.214V130.927C38.8333 130.557 38.9062 130.203 39.0469 129.865C39.1875 129.521 39.3854 129.219 39.6458 128.958C39.9062 128.698 40.2031 128.495 40.5416 128.354C40.8854 128.214 41.2344 128.146 41.6041 128.146C41.9739 128.146 42.3229 128.214 42.6666 128.354C43.0052 128.495 43.3021 128.698 43.5625 128.958C43.8229 129.219 44.026 129.521 44.1666 129.865C44.3073 130.203 44.375 130.557 44.375 130.927V150.427H116.417V27.8594H80.3958C80.026 27.8594 79.6771 27.7865 79.3333 27.6459C78.9948 27.5052 78.6979 27.3021 78.4375 27.0417C78.1771 26.7813 77.9791 26.4792 77.8385 26.1355C77.6979 25.7969 77.625 25.4427 77.625 25.073C77.625 24.7032 77.6979 24.349 77.8385 24.0052C77.9791 23.6667 78.1771 23.3646 78.4375 23.1042C78.6979 22.8386 78.9948 22.6407 79.3333 22.5C79.6771 22.3594 80.026 22.2865 80.3958 22.2865H119.187C119.557 22.2865 119.906 22.3594 120.25 22.5C120.589 22.6407 120.885 22.8386 121.146 23.1042C121.406 23.3646 121.609 23.6667 121.75 24.0052C121.891 24.349 121.958 24.7032 121.958 25.073V153.214C121.958 153.583 121.891 153.938 121.75 154.281C121.609 154.62 121.406 154.922 121.146 155.182C120.885 155.448 120.589 155.646 120.25 155.786C119.906 155.932 119.557 156 119.187 156Z" fill="#145A96"/>
</g>
<mask id="mask2_123_6390" style="mask-type:luminance" maskUnits="userSpaceOnUse" x="37" y="127" width="48" height="29">
<path d="M37.776 127.943H84.4427V156H37.776V127.943Z" fill="white"/>
</mask>
<g mask="url(#mask2_123_6390)">
<path d="M41.6093 156C40.9791 156 40.4166 155.807 39.9166 155.422C39.4166 155.042 39.0885 154.542 38.927 153.932C38.7656 153.323 38.8072 152.724 39.0468 152.141C39.2916 151.557 39.6822 151.109 40.2291 150.797L79.0208 128.51C79.3385 128.333 79.6822 128.219 80.0416 128.177C80.4062 128.135 80.7604 128.162 81.1145 128.26C81.4635 128.359 81.7864 128.521 82.0729 128.745C82.3593 128.969 82.5937 129.245 82.776 129.563C82.9583 129.88 83.0729 130.224 83.1197 130.583C83.1666 130.948 83.1406 131.307 83.0468 131.662C82.9531 132.016 82.7968 132.339 82.5729 132.63C82.3541 132.922 82.0833 133.162 81.7708 133.349L42.9791 155.635C42.552 155.88 42.0989 156 41.6093 156Z" fill="#145A96"/>
</g>
<path d="M69.3125 55.7136H13.8958C13.526 55.7136 13.1771 55.6459 12.8333 55.5052C12.4948 55.3594 12.1979 55.1615 11.9375 54.9011C11.6771 54.6355 11.4792 54.3386 11.3385 53.9948C11.1979 53.6563 11.125 53.2969 11.125 52.9271V13.9271C11.125 13.5573 11.1979 13.2032 11.3385 12.8646C11.4792 12.5209 11.6771 12.2188 11.9375 11.9584C12.1979 11.698 12.4948 11.4948 12.8333 11.3542C13.1771 11.2136 13.526 11.1459 13.8958 11.1459H69.3125C69.6823 11.1459 70.0312 11.2136 70.375 11.3542C70.7135 11.4948 71.0104 11.698 71.2708 11.9584C71.5312 12.2188 71.7344 12.5209 71.875 12.8646C72.0156 13.2032 72.0833 13.5573 72.0833 13.9271V52.9271C72.0833 53.2969 72.0156 53.6563 71.875 53.9948C71.7344 54.3386 71.5312 54.6355 71.2708 54.9011C71.0104 55.1615 70.7135 55.3594 70.375 55.5052C70.0312 55.6459 69.6823 55.7136 69.3125 55.7136ZM16.6667 50.1459H66.5417V16.7136H16.6667V50.1459Z" fill="#145A96"/>
<path d="M69.3125 72.4271H13.8958C13.526 72.4271 13.1771 72.3594 12.8333 72.2188C12.4948 72.0781 12.1979 71.875 11.9375 71.6146C11.6771 71.3542 11.4792 71.0521 11.3385 70.7083C11.1979 70.3698 11.125 70.0104 11.125 69.6458C11.125 69.276 11.1979 68.9167 11.3385 68.5781C11.4792 68.2344 11.6771 67.9323 11.9375 67.6719C12.1979 67.4115 12.4948 67.2135 12.8333 67.0677C13.1771 66.9271 13.526 66.8594 13.8958 66.8594H69.3125C69.6823 66.8594 70.0312 66.9271 70.375 67.0677C70.7135 67.2135 71.0104 67.4115 71.2708 67.6719C71.5312 67.9323 71.7344 68.2344 71.875 68.5781C72.0156 68.9167 72.0833 69.276 72.0833 69.6458C72.0833 70.0104 72.0156 70.3698 71.875 70.7083C71.7344 71.0521 71.5312 71.3542 71.2708 71.6146C71.0104 71.875 70.7135 72.0781 70.375 72.2188C70.0312 72.3594 69.6823 72.4271 69.3125 72.4271Z" fill="#145A96"/>
<path d="M69.3125 83.5729H13.8958C13.526 83.5729 13.1771 83.5 12.8333 83.3594C12.4948 83.2188 12.1979 83.0156 11.9375 82.7552C11.6771 82.4948 11.4792 82.1927 11.3385 81.8542C11.1979 81.5104 11.125 81.1563 11.125 80.7865C11.125 80.4167 11.1979 80.0625 11.3385 79.7188C11.4792 79.3802 11.6771 79.0781 11.9375 78.8177C12.1979 78.5573 12.4948 78.3542 12.8333 78.2135C13.1771 78.0729 13.526 78 13.8958 78H69.3125C69.6823 78 70.0312 78.0729 70.375 78.2135C70.7135 78.3542 71.0104 78.5573 71.2708 78.8177C71.5312 79.0781 71.7344 79.3802 71.875 79.7188C72.0156 80.0625 72.0833 80.4167 72.0833 80.7865C72.0833 81.1563 72.0156 81.5104 71.875 81.8542C71.7344 82.1927 71.5312 82.4948 71.2708 82.7552C71.0104 83.0156 70.7135 83.2188 70.375 83.3594C70.0312 83.5 69.6823 83.5729 69.3125 83.5729Z" fill="#145A96"/>
<path d="M69.3125 94.7136H13.8958C13.526 94.7136 13.1771 94.6459 12.8333 94.5052C12.4948 94.3594 12.1979 94.1615 11.9375 93.9011C11.6771 93.6355 11.4792 93.3386 11.3385 92.9948C11.1979 92.6563 11.125 92.2969 11.125 91.9271C11.125 91.5573 11.1979 91.2032 11.3385 90.8646C11.4792 90.5209 11.6771 90.2188 11.9375 89.9584C12.1979 89.698 12.4948 89.4948 12.8333 89.3542C13.1771 89.2136 13.526 89.1459 13.8958 89.1459H69.3125C69.6823 89.1459 70.0312 89.2136 70.375 89.3542C70.7135 89.4948 71.0104 89.698 71.2708 89.9584C71.5312 90.2188 71.7344 90.5209 71.875 90.8646C72.0156 91.2032 72.0833 91.5573 72.0833 91.9271C72.0833 92.2969 72.0156 92.6563 71.875 92.9948C71.7344 93.3386 71.5312 93.6355 71.2708 93.9011C71.0104 94.1615 70.7135 94.3594 70.375 94.5052C70.0312 94.6459 69.6823 94.7136 69.3125 94.7136Z" fill="#145A96"/>
<path d="M30.5208 122.573H13.8958C13.526 122.573 13.1771 122.5 12.8333 122.359C12.4948 122.219 12.1979 122.016 11.9375 121.755C11.6771 121.495 11.4792 121.193 11.3385 120.854C11.1979 120.51 11.125 120.156 11.125 119.786C11.125 119.417 11.1979 119.063 11.3385 118.719C11.4792 118.38 11.6771 118.078 11.9375 117.818C12.1979 117.557 12.4948 117.354 12.8333 117.214C13.1771 117.073 13.526 117 13.8958 117H30.5208C30.8906 117 31.2396 117.073 31.5833 117.214C31.9219 117.354 32.2188 117.557 32.4792 117.818C32.7396 118.078 32.9427 118.38 33.0833 118.719C33.224 119.063 33.2917 119.417 33.2917 119.786C33.2917 120.156 33.224 120.51 33.0833 120.854C32.9427 121.193 32.7396 121.495 32.4792 121.755C32.2188 122.016 31.9219 122.219 31.5833 122.359C31.2396 122.5 30.8906 122.573 30.5208 122.573Z" fill="#145A96"/>
<path d="M69.3125 122.573H52.6875C52.3177 122.573 51.9687 122.5 51.625 122.359C51.2864 122.219 50.9895 122.016 50.7291 121.755C50.4687 121.495 50.2708 121.193 50.1302 120.854C49.9895 120.51 49.9166 120.156 49.9166 119.786C49.9166 119.417 49.9895 119.063 50.1302 118.719C50.2708 118.38 50.4687 118.078 50.7291 117.818C50.9895 117.557 51.2864 117.354 51.625 117.214C51.9687 117.073 52.3177 117 52.6875 117H69.3125C69.6823 117 70.0312 117.073 70.375 117.214C70.7135 117.354 71.0104 117.557 71.2708 117.818C71.5312 118.078 71.7343 118.38 71.875 118.719C72.0156 119.063 72.0833 119.417 72.0833 119.786C72.0833 120.156 72.0156 120.51 71.875 120.854C71.7343 121.193 71.5312 121.495 71.2708 121.755C71.0104 122.016 70.7135 122.219 70.375 122.359C70.0312 122.5 69.6823 122.573 69.3125 122.573Z" fill="#145A96"/>
</svg>
