<svg width="38" height="64" viewBox="0 0 38 64" fill="none" xmlns="http://www.w3.org/2000/svg">
<path d="M18.9687 9.06767C14.6614 9.06767 11.1562 12.5573 11.1562 16.8489C11.1562 21.1406 14.6614 24.6302 18.9687 24.6302C23.2812 24.6302 26.7864 21.1406 26.7864 16.8489C26.7864 12.5573 23.2812 9.06767 18.9687 9.06767ZM18.9687 26.2968C13.7395 26.2968 9.47913 22.0573 9.47913 16.8489C9.47913 11.6406 13.7395 7.401 18.9687 7.401C24.2031 7.401 28.4583 11.6406 28.4583 16.8489C28.4583 22.0573 24.2031 26.2968 18.9687 26.2968Z" fill="#241F21"/>
<mask id="mask0_123_3154" style="mask-type:luminance" maskUnits="userSpaceOnUse" x="0" y="0" width="38" height="56">
<path d="M0 0H37.9427V55.7135H0V0Z" fill="white"/>
</mask>
<g mask="url(#mask0_123_3154)">
<path d="M18.9688 1.72396C9.46354 1.72396 1.72396 9.42188 1.72396 18.8906C1.72396 33.2656 15.8021 49.7292 18.9688 53.2448C22.1354 49.7292 36.2135 33.2656 36.2135 18.8906C36.2135 9.42188 28.4792 1.72396 18.9688 1.72396ZM18.9688 55.6094L18.4375 55.1979C18.2448 55.0469 13.651 50.1302 9.19271 43.4062C6.53646 39.3958 4.41667 35.4896 2.89062 31.7917C0.973958 27.1354 0 22.7917 0 18.8906C0 13.849 1.97396 9.10417 5.55729 5.53646C9.14062 1.96875 13.901 0 18.9688 0C24.0365 0 28.8021 1.96875 32.3854 5.53646C35.9688 9.10417 37.9427 13.849 37.9427 18.8906C37.9427 22.7917 36.9688 27.1354 35.0469 31.7917C33.526 35.4896 31.4063 39.3958 28.7448 43.4062C24.2917 50.1302 19.6927 55.0469 19.5 55.1979L18.9688 55.6094Z" fill="#241F21"/>
</g>
<mask id="mask1_123_3154" style="mask-type:luminance" maskUnits="userSpaceOnUse" x="2" y="57" width="34" height="7">
<path d="M2.6145 57.75H35.3645V64H2.6145V57.75Z" fill="white"/>
</mask>
<g mask="url(#mask1_123_3154)">
<path d="M30.4218 57.8073C31.5416 58.2343 32.177 58.7343 32.177 59.2604C32.177 60.875 26.2655 62.1823 18.9687 62.1823C11.677 62.1823 5.76034 60.875 5.76034 59.2604C5.76034 58.7343 6.40096 58.2343 7.51554 57.8073C4.49471 58.4635 2.6145 59.375 2.6145 60.3854C2.6145 62.3854 9.93742 64 18.9687 64C27.9999 64 35.3228 62.3854 35.3228 60.3854C35.3228 59.375 33.4478 58.4635 30.4218 57.8073Z" fill="#241F21"/>
</g>
<path d="M24.7187 57.4948C25.2812 57.7083 25.5989 57.9583 25.5989 58.2239C25.5989 59.0312 22.6302 59.6875 18.9687 59.6875C15.3073 59.6875 12.3385 59.0312 12.3385 58.2239C12.3385 57.9583 12.6614 57.7083 13.2187 57.4948C11.7031 57.8229 10.7604 58.2812 10.7604 58.7864C10.7604 59.7916 14.4375 60.6041 18.9687 60.6041C23.5052 60.6041 27.1823 59.7916 27.1823 58.7864C27.1823 58.2812 26.2395 57.8229 24.7187 57.4948Z" fill="#241F21"/>
</svg>
